<svg width="30" height="30" viewBox="0 0 30 30" fill="none" xmlns="http://www.w3.org/2000/svg">
<path d="M24.6875 26.875H19.0625C18.1994 26.875 17.5 26.1756 17.5 25.3125V19.6875C17.5 18.9969 16.9406 18.4375 16.25 18.4375H13.75C13.0594 18.4375 12.5 18.9969 12.5 19.6875V25.3125C12.5 26.1756 11.8006 26.875 10.9375 26.875H5.3125C4.44937 26.875 3.75 26.1756 3.75 25.3125V13.3831C3.75 11.9462 4.40875 10.5887 5.53688 9.7L14.4194 2.70063C14.76 2.43313 15.24 2.43313 15.58 2.70063L24.4637 9.7C25.5919 10.5887 26.25 11.9456 26.25 13.3819V25.3125C26.25 26.1756 25.5506 26.875 24.6875 26.875Z" fill="#CECECE"/>
</svg>
