<svg width="24" height="24" viewBox="0 0 24 24" fill="none" xmlns="http://www.w3.org/2000/svg">
<g clip-path="url(#clip0_32_93)">
<path fill-rule="evenodd" clip-rule="evenodd" d="M9.88235 18.3529C5.21083 18.3529 1.41176 14.5539 1.41176 9.88235C1.41176 5.21083 5.21083 1.41176 9.88235 1.41176C14.5539 1.41176 18.3529 5.21083 18.3529 9.88235C18.3529 14.5539 14.5539 18.3529 9.88235 18.3529ZM17.3421 16.344C18.8471 14.6104 19.7647 12.3529 19.7647 9.88235C19.7647 4.43435 15.3303 0 9.88235 0C4.43435 0 0 4.43435 0 9.88235C0 15.3303 4.43435 19.7647 9.88235 19.7647C12.3529 19.7647 14.6104 18.8471 16.344 17.3421L22.7943 23.7939L23.7939 22.7943L17.3421 16.344Z" fill="#CECECE"/>
</g>
<defs>
<clipPath id="clip0_32_93">
<rect width="24" height="24" fill="white"/>
</clipPath>
</defs>
</svg>
