<svg width="30" height="30" viewBox="0 0 30 30" fill="none" xmlns="http://www.w3.org/2000/svg">
<g clip-path="url(#clip0_149_138)">
<path d="M15 13.75C16.6576 13.75 18.2473 14.4085 19.4194 15.5806C20.5915 16.7527 21.25 18.3424 21.25 20V27.5H8.75V20C8.75 18.3424 9.40848 16.7527 10.5806 15.5806C11.7527 14.4085 13.3424 13.75 15 13.75ZM6.61 17.5075C6.41107 18.1785 6.29356 18.871 6.26 19.57L6.25 20V27.5H2.5V21.875C2.49975 20.797 2.89754 19.7568 3.61704 18.954C4.33655 18.1512 5.32712 17.6424 6.39875 17.525L6.61 17.5075ZM23.39 17.5075C24.5024 17.5753 25.547 18.0649 26.3107 18.8765C27.0745 19.6881 27.4998 20.7605 27.5 21.875V27.5H23.75V20C23.75 19.1337 23.625 18.2975 23.39 17.5075ZM6.875 10C7.7038 10 8.49866 10.3292 9.08471 10.9153C9.67076 11.5013 10 12.2962 10 13.125C10 13.9538 9.67076 14.7487 9.08471 15.3347C8.49866 15.9208 7.7038 16.25 6.875 16.25C6.0462 16.25 5.25134 15.9208 4.66529 15.3347C4.07924 14.7487 3.75 13.9538 3.75 13.125C3.75 12.2962 4.07924 11.5013 4.66529 10.9153C5.25134 10.3292 6.0462 10 6.875 10ZM23.125 10C23.9538 10 24.7487 10.3292 25.3347 10.9153C25.9208 11.5013 26.25 12.2962 26.25 13.125C26.25 13.9538 25.9208 14.7487 25.3347 15.3347C24.7487 15.9208 23.9538 16.25 23.125 16.25C22.2962 16.25 21.5013 15.9208 20.9153 15.3347C20.3292 14.7487 20 13.9538 20 13.125C20 12.2962 20.3292 11.5013 20.9153 10.9153C21.5013 10.3292 22.2962 10 23.125 10ZM15 2.5C16.3261 2.5 17.5979 3.02678 18.5355 3.96447C19.4732 4.90215 20 6.17392 20 7.5C20 8.82608 19.4732 10.0979 18.5355 11.0355C17.5979 11.9732 16.3261 12.5 15 12.5C13.6739 12.5 12.4021 11.9732 11.4645 11.0355C10.5268 10.0979 10 8.82608 10 7.5C10 6.17392 10.5268 4.90215 11.4645 3.96447C12.4021 3.02678 13.6739 2.5 15 2.5Z" fill="#CECECE"/>
</g>
<defs>
<clipPath id="clip0_149_138">
<rect width="30" height="30" fill="white"/>
</clipPath>
</defs>
</svg>
